# xmcd CD database file
#
# Track frame offsets:
#	150
#	16525
#	35027
#
# Disc length: 683 seconds
#
# Revision: 0
# Processed by: cddbd v1.5.1PL0 Copyright (c) Steve Scherf et al.
# Submitted via: CDex 1.51
#
DISCID=1702a903
DTITLE=森高千里 - ミラクルライト
DYEAR=1997
DGENRE=JPop
TTITLE0=ミラクルライト
TTITLE1=ミラクルウーマン
TTITLE2=ミラクルライト(ORIGINAL KARAOKE)
EXTD=YEAR: 1997
EXTT0=
EXTT1=
EXTT2=
PLAYORDER=
